# Blender 4.3.2
# www.blender.org
mtllib tablero.mtl
o Tablero
v -2.700000 -0.150000 2.700000
v -2.700000 0.150000 2.700000
v -2.700000 -0.150000 -2.700000
v -2.700000 0.150000 -2.700000
v 2.700000 -0.150000 2.700000
v 2.700000 0.150000 2.700000
v 2.700000 -0.150000 -2.700000
v 2.700000 0.150000 -2.700000
v 0.000000 -0.150000 -2.700000
v 0.000000 0.150000 -2.700000
v 0.000000 -0.150000 2.700000
v 0.000000 0.150000 2.700000
v -2.400000 0.151500 2.400000
v 2.400000 0.151500 2.400000
v -2.400000 0.151500 -2.400000
v 2.400000 0.151500 -2.400000
v -1.800000 0.151500 2.400000
v -1.200000 0.151500 2.400000
v -0.600000 0.151500 2.400000
v 0.000000 0.151500 2.400000
v 0.600000 0.151500 2.400000
v 1.200000 0.151500 2.400000
v 1.800000 0.151500 2.400000
v 1.800000 0.151500 -2.400000
v 1.200000 0.151500 -2.400000
v 0.600000 0.151500 -2.400000
v 0.000000 0.151500 -2.400000
v -0.600000 0.151500 -2.400000
v -1.200000 0.151500 -2.400000
v -1.800000 0.151500 -2.400000
v -2.400000 0.151500 -1.800000
v -2.400000 0.151500 -1.200000
v -2.400000 0.151500 -0.600000
v -2.400000 0.151500 0.000000
v -2.400000 0.151500 0.600000
v -2.400000 0.151500 1.200000
v -2.400000 0.151500 1.800000
v 2.400000 0.151500 1.800000
v 2.400000 0.151500 1.200000
v 2.400000 0.151500 0.600000
v 2.400000 0.151500 0.000000
v 2.400000 0.151500 -0.600000
v 2.400000 0.151500 -1.200000
v 2.400000 0.151500 -1.800000
v -1.800000 0.151500 1.800000
v -1.800000 0.151500 1.200000
v -1.800000 0.151500 0.600000
v -1.800000 0.151500 0.000000
v -1.800000 0.151500 -0.600000
v -1.800000 0.151500 -1.200000
v -1.800000 0.151500 -1.800000
v -1.200000 0.151500 1.800000
v -1.200000 0.151500 1.200000
v -1.200000 0.151500 0.600000
v -1.200000 0.151500 0.000000
v -1.200000 0.151500 -0.600000
v -1.200000 0.151500 -1.200000
v -1.200000 0.151500 -1.800000
v -0.600000 0.151500 1.800000
v -0.600000 0.151500 1.200000
v -0.600000 0.151500 0.600000
v -0.600000 0.151500 0.000000
v -0.600000 0.151500 -0.600000
v -0.600000 0.151500 -1.200000
v -0.600000 0.151500 -1.800000
v 0.000000 0.151500 1.800000
v 0.000000 0.151500 1.200000
v 0.000000 0.151500 0.600000
v 0.000000 0.151500 0.000000
v 0.000000 0.151500 -0.600000
v 0.000000 0.151500 -1.200000
v 0.000000 0.151500 -1.800000
v 0.600000 0.151500 1.800000
v 0.600000 0.151500 1.200000
v 0.600000 0.151500 0.600000
v 0.600000 0.151500 0.000000
v 0.600000 0.151500 -0.600000
v 0.600000 0.151500 -1.200000
v 0.600000 0.151500 -1.800000
v 1.200000 0.151500 1.800000
v 1.200000 0.151500 1.200000
v 1.200000 0.151500 0.600000
v 1.200000 0.151500 0.000000
v 1.200000 0.151500 -0.600000
v 1.200000 0.151500 -1.200000
v 1.200000 0.151500 -1.800000
v 1.800000 0.151500 1.800000
v 1.800000 0.151500 1.200000
v 1.800000 0.151500 0.600000
v 1.800000 0.151500 0.000000
v 1.800000 0.151500 -0.600000
v 1.800000 0.151500 -1.200000
v 1.800000 0.151500 -1.800000
vn -1.0000 -0.0000 -0.0000
vn -0.0000 -0.0000 -1.0000
vn 1.0000 -0.0000 -0.0000
vn -0.0000 -0.0000 1.0000
vn -0.0000 -1.0000 -0.0000
vn -0.0000 1.0000 -0.0000
vt 0.625000 0.000000
vt 0.375000 0.250000
vt 0.375000 0.000000
vt 0.625000 0.375000
vt 0.375000 0.500000
vt 0.375000 0.375000
vt 0.625000 0.500000
vt 0.375000 0.750000
vt 0.625000 0.875000
vt 0.375000 1.000000
vt 0.375000 0.875000
vt 0.250000 0.750000
vt 0.250000 0.500000
vt 0.092969 0.909850
vt 0.496600 0.102588
vt 0.496600 0.909850
vt 0.900231 0.102588
vt 0.900231 0.909850
vt 0.125000 0.750000
vt 0.125000 0.500000
vt 0.625000 0.750000
vt 0.625000 0.250000
vt 1.000000 0.875000
vt 0.875000 1.000000
vt 0.875000 0.875000
vt 0.125000 0.875000
vt 0.000000 1.000000
vt 0.000000 0.875000
vt 0.250000 0.875000
vt 0.125000 1.000000
vt 0.250000 1.000000
vt 0.500000 0.875000
vt 0.500000 1.000000
vt 0.750000 0.875000
vt 0.625000 1.000000
vt 0.750000 1.000000
vt 0.875000 0.000000
vt 0.750000 0.125000
vt 0.750000 0.000000
vt 0.875000 0.125000
vt 0.750000 0.250000
vt 0.875000 0.250000
vt 0.750000 0.375000
vt 0.875000 0.375000
vt 0.750000 0.500000
vt 0.875000 0.500000
vt 0.750000 0.625000
vt 0.875000 0.625000
vt 0.750000 0.750000
vt 0.875000 0.750000
vt 0.625000 0.125000
vt 0.625000 0.625000
vt 0.500000 0.125000
vt 0.500000 0.000000
vt 0.500000 0.250000
vt 0.500000 0.375000
vt 0.500000 0.500000
vt 0.500000 0.625000
vt 0.500000 0.750000
vt 0.375000 0.125000
vt 0.375000 0.625000
vt 0.250000 0.125000
vt 0.250000 0.000000
vt 0.250000 0.250000
vt 0.250000 0.375000
vt 0.250000 0.625000
vt 0.250000 0.750000
vt 0.125000 0.125000
vt 0.125000 0.000000
vt 0.125000 0.250000
vt 0.125000 0.375000
vt 0.125000 0.625000
vt 0.125000 0.750000
vt 0.000000 0.125000
vt 0.000000 0.000000
vt 0.000000 0.250000
vt 0.000000 0.375000
vt 0.000000 0.500000
vt 0.000000 0.625000
vt 0.000000 0.750000
vt 1.000000 0.000000
vt 1.000000 0.125000
vt 1.000000 0.250000
vt 1.000000 0.375000
vt 1.000000 0.500000
vt 1.000000 0.625000
vt 1.000000 0.750000
vt 0.092969 0.102588
vt 1.000000 1.000000
s 0
usemtl Material
f 2/1/1 3/2/1 1/3/1
f 10/4/2 7/5/2 9/6/2
f 8/7/3 5/8/3 7/5/3
f 12/9/4 1/10/4 11/11/4
f 7/5/5 11/12/5 9/13/5
f 9/13/5 1/19/5 3/20/5
f 6/21/4 11/11/4 5/8/4
f 4/22/2 9/6/2 3/2/2
f 44/23/6 24/24/6 93/25/6
f 58/29/6 30/30/6 51/26/6
f 72/32/6 28/10/6 65/11/6
f 86/34/6 26/35/6 79/9/6
f 23/37/6 80/38/6 22/39/6
f 88/42/6 82/43/6 81/41/6
f 90/46/6 84/47/6 83/45/6
f 92/50/6 86/34/6 85/49/6
f 80/38/6 74/22/6 73/51/6
f 82/43/6 76/7/6 75/4/6
f 84/47/6 78/21/6 77/52/6
f 21/1/6 66/53/6 20/54/6
f 74/22/6 68/56/6 67/55/6
f 76/7/6 70/58/6 69/57/6
f 78/21/6 72/32/6 71/59/6
f 66/53/6 60/2/6 59/60/6
f 68/56/6 62/5/6 61/6/6
f 70/58/6 64/8/6 63/61/6
f 19/3/6 52/62/6 18/63/6
f 60/2/6 54/65/6 53/64/6
f 62/5/6 56/66/6 55/13/6
f 64/8/6 58/29/6 57/67/6
f 52/62/6 46/70/6 45/68/6
f 54/65/6 48/20/6 47/71/6
f 56/66/6 50/73/6 49/72/6
f 17/69/6 37/74/6 13/75/6
f 46/70/6 35/77/6 36/76/6
f 48/20/6 33/79/6 34/78/6
f 50/73/6 31/28/6 32/80/6
f 38/82/6 88/42/6 87/40/6
f 40/84/6 90/46/6 89/44/6
f 42/86/6 92/50/6 91/48/6
f 2/1/1 4/22/1 3/2/1
f 10/4/2 8/7/2 7/5/2
f 8/7/3 6/21/3 5/8/3
f 12/9/4 2/35/4 1/10/4
f 7/5/5 5/8/5 11/12/5
f 9/13/5 11/12/5 1/19/5
f 6/21/4 12/9/4 11/11/4
f 4/22/2 10/4/2 9/6/2
f 44/23/6 16/89/6 24/24/6
f 58/29/6 29/31/6 30/30/6
f 72/32/6 27/33/6 28/10/6
f 86/34/6 25/36/6 26/35/6
f 23/37/6 87/40/6 80/38/6
f 88/42/6 89/44/6 82/43/6
f 90/46/6 91/48/6 84/47/6
f 92/50/6 93/25/6 86/34/6
f 80/38/6 81/41/6 74/22/6
f 82/43/6 83/45/6 76/7/6
f 84/47/6 85/49/6 78/21/6
f 21/1/6 73/51/6 66/53/6
f 74/22/6 75/4/6 68/56/6
f 76/7/6 77/52/6 70/58/6
f 78/21/6 79/9/6 72/32/6
f 66/53/6 67/55/6 60/2/6
f 68/56/6 69/57/6 62/5/6
f 70/58/6 71/59/6 64/8/6
f 19/3/6 59/60/6 52/62/6
f 60/2/6 61/6/6 54/65/6
f 62/5/6 63/61/6 56/66/6
f 64/8/6 65/11/6 58/29/6
f 52/62/6 53/64/6 46/70/6
f 54/65/6 55/13/6 48/20/6
f 56/66/6 57/67/6 50/73/6
f 17/69/6 45/68/6 37/74/6
f 46/70/6 47/71/6 35/77/6
f 48/20/6 49/72/6 33/79/6
f 50/73/6 51/26/6 31/28/6
f 38/82/6 39/83/6 88/42/6
f 40/84/6 41/85/6 90/46/6
f 42/86/6 43/87/6 92/50/6
usemtl Material.001
f 51/26/6 15/27/6 31/28/6
f 65/11/6 29/31/6 58/29/6
f 79/9/6 27/33/6 72/32/6
f 93/25/6 25/36/6 86/34/6
f 87/40/6 81/41/6 80/38/6
f 89/44/6 83/45/6 82/43/6
f 91/48/6 85/49/6 84/47/6
f 22/39/6 73/51/6 21/1/6
f 81/41/6 75/4/6 74/22/6
f 83/45/6 77/52/6 76/7/6
f 85/49/6 79/9/6 78/21/6
f 73/51/6 67/55/6 66/53/6
f 75/4/6 69/57/6 68/56/6
f 77/52/6 71/59/6 70/58/6
f 20/54/6 59/60/6 19/3/6
f 67/55/6 61/6/6 60/2/6
f 69/57/6 63/61/6 62/5/6
f 71/59/6 65/11/6 64/8/6
f 59/60/6 53/64/6 52/62/6
f 61/6/6 55/13/6 54/65/6
f 63/61/6 57/67/6 56/66/6
f 18/63/6 45/68/6 17/69/6
f 53/64/6 47/71/6 46/70/6
f 55/13/6 49/72/6 48/20/6
f 57/67/6 51/26/6 50/73/6
f 45/68/6 36/76/6 37/74/6
f 47/71/6 34/78/6 35/77/6
f 49/72/6 32/80/6 33/79/6
f 14/81/6 87/40/6 23/37/6
f 39/83/6 89/44/6 88/42/6
f 41/85/6 91/48/6 90/46/6
f 43/87/6 93/25/6 92/50/6
f 51/26/6 30/30/6 15/27/6
f 65/11/6 28/10/6 29/31/6
f 79/9/6 26/35/6 27/33/6
f 93/25/6 24/24/6 25/36/6
f 87/40/6 88/42/6 81/41/6
f 89/44/6 90/46/6 83/45/6
f 91/48/6 92/50/6 85/49/6
f 22/39/6 80/38/6 73/51/6
f 81/41/6 82/43/6 75/4/6
f 83/45/6 84/47/6 77/52/6
f 85/49/6 86/34/6 79/9/6
f 73/51/6 74/22/6 67/55/6
f 75/4/6 76/7/6 69/57/6
f 77/52/6 78/21/6 71/59/6
f 20/54/6 66/53/6 59/60/6
f 67/55/6 68/56/6 61/6/6
f 69/57/6 70/58/6 63/61/6
f 71/59/6 72/32/6 65/11/6
f 59/60/6 60/2/6 53/64/6
f 61/6/6 62/5/6 55/13/6
f 63/61/6 64/8/6 57/67/6
f 18/63/6 52/62/6 45/68/6
f 53/64/6 54/65/6 47/71/6
f 55/13/6 56/66/6 49/72/6
f 57/67/6 58/29/6 51/26/6
f 45/68/6 46/70/6 36/76/6
f 47/71/6 48/20/6 34/78/6
f 49/72/6 50/73/6 32/80/6
f 14/81/6 38/82/6 87/40/6
f 39/83/6 40/84/6 89/44/6
f 41/85/6 42/86/6 91/48/6
f 43/87/6 44/23/6 93/25/6
usemtl Material.002
f 4/14/6 12/15/6 10/16/6
f 10/16/6 6/17/6 8/18/6
f 4/14/6 2/88/6 12/15/6
f 10/16/6 12/15/6 6/17/6
