# Blender 4.3.2
# www.blender.org
mtllib tapete.mtl
o Tapete
v -0.786182 0.010000 0.526254
v 0.786182 0.010000 0.526254
v -0.786182 0.010000 -0.526254
v 0.786182 0.010000 -0.526254
v -0.786182 -0.020208 0.526254
v 0.786182 -0.020208 0.526254
v -0.786182 -0.020208 -0.526254
v 0.786182 -0.020208 -0.526254
vn -0.0000 1.0000 -0.0000
vn -0.0000 -1.0000 -0.0000
vn -1.0000 -0.0000 -0.0000
vn -0.0000 -0.0000 1.0000
vn 1.0000 -0.0000 -0.0000
vn -0.0000 -0.0000 -1.0000
vt 0.935394 0.047484
vt 0.064606 0.952515
vt 0.064606 0.047484
vt 0.935394 0.952515
s 0
usemtl Material.002
f 2/1/1 3/2/1 1/3/1
f 7/2/2 6/1/2 5/3/2
f 3/2/3 5/3/3 1/3/3
f 1/3/4 6/1/4 2/1/4
f 2/1/5 8/4/5 4/4/5
f 4/4/6 7/2/6 3/2/6
f 2/1/1 4/4/1 3/2/1
f 7/2/2 8/4/2 6/1/2
f 3/2/3 7/2/3 5/3/3
f 1/3/4 5/3/4 6/1/4
f 2/1/5 6/1/5 8/4/5
f 4/4/6 8/4/6 7/2/6
